<svg width="383" height="375" viewBox="0 0 383 375" fill="none" xmlns="http://www.w3.org/2000/svg">
<path d="M270.759 231.893C244.477 276.167 187.845 291.228 144.284 265.592C100.723 239.956 86.6675 183.295 112.95 139.021C139.232 94.7476 195.863 79.6869 239.424 105.323C282.985 130.959 297.041 187.62 270.759 231.893Z" stroke="black" stroke-width="2.35444"/>
<path d="M66.218 124.467L175.296 144.575L176.024 144.709L176.544 144.183L250.917 69.1149L235.415 173.643L235.307 174.375L235.85 174.878L317.333 250.13L208.255 230.021L207.527 229.887L207.006 230.413L132.634 305.482L148.136 200.953L148.244 200.221L147.7 199.719L66.218 124.467Z" fill="#1A88EE" stroke="black" stroke-width="2.80097"/>
</svg>
