<svg width="221" height="216" viewBox="0 0 221 216" fill="none" xmlns="http://www.w3.org/2000/svg">
<path d="M207.847 91.5848C208.471 95.1708 208.895 98.8238 209.106 102.532L208.538 102.565C208.642 104.378 208.694 106.205 208.694 108.043C208.694 109.882 208.642 111.709 208.538 113.522L209.106 113.555C208.895 117.263 208.471 120.916 207.847 124.502L207.287 124.405C206.656 128.031 205.819 131.589 204.788 135.066L205.333 135.228C204.283 138.769 203.033 142.227 201.596 145.589L201.073 145.366C199.632 148.736 198.002 152.009 196.196 155.173L196.689 155.455C194.864 158.651 192.861 161.736 190.691 164.696L190.233 164.36C188.073 167.307 185.749 170.131 183.272 172.818L183.69 173.203C181.202 175.902 178.562 178.463 175.783 180.875L175.41 180.445C172.657 182.834 169.766 185.074 166.75 187.154L167.073 187.622C164.058 189.701 160.919 191.62 157.67 193.366L157.401 192.865C154.198 194.586 150.887 196.137 147.48 197.508L147.692 198.035C144.305 199.398 140.824 200.582 137.261 201.577L137.108 201.029C133.617 202.003 130.047 202.793 126.409 203.388L126.501 203.95C122.911 204.537 119.255 204.936 115.545 205.135L115.514 204.567C113.7 204.665 111.873 204.714 110.034 204.714C108.194 204.714 106.367 204.665 104.553 204.567L104.522 205.135C100.812 204.936 97.1564 204.537 93.5659 203.95L93.6577 203.388C90.0202 202.793 86.4503 202.003 82.9593 201.029L82.8065 201.577C79.2435 200.582 75.7622 199.398 72.375 198.035L72.5872 197.508C69.1805 196.137 65.8693 194.586 62.6663 192.865L62.3971 193.366C59.1478 191.62 56.0091 189.701 52.9938 187.622L53.3167 187.154C50.3015 185.074 47.4106 182.834 44.657 180.445L44.2843 180.875C41.5051 178.463 38.8649 175.902 36.377 173.203L36.7951 172.818C34.3186 170.131 31.9939 167.307 29.8343 164.36L29.3756 164.696C27.2064 161.736 25.2027 158.651 23.3777 155.455L23.8716 155.173C22.0653 152.009 20.4352 148.736 18.9945 145.366L18.4716 145.589C17.0342 142.227 15.7841 138.769 14.7339 135.228L15.2791 135.066C14.248 131.589 13.4109 128.031 12.7799 124.405L12.2197 124.502C11.5958 120.916 11.1723 117.263 10.9609 113.555L11.5286 113.522C11.4252 111.709 11.3728 109.882 11.3728 108.043C11.3728 106.205 11.4252 104.378 11.5286 102.565L10.9609 102.532C11.1723 98.8238 11.5958 95.1708 12.2197 91.5848L12.7799 91.6823C13.4109 88.0555 14.248 84.4977 15.2791 81.0207L14.7339 80.8591C15.7841 77.3176 17.0342 73.8596 18.4716 70.4975L18.9945 70.7211C20.4352 67.351 22.0653 64.0778 23.8716 60.9142L23.3777 60.6323C25.2027 57.4361 27.2064 54.3513 29.3756 51.3908L29.8343 51.7268C31.9939 48.7795 34.3186 45.956 36.7951 43.2694L36.377 42.884C38.8649 40.1851 41.5051 37.6235 44.2843 35.2124L44.657 35.6419C47.4106 33.253 50.3015 31.0125 53.3167 28.9333L52.9938 28.4652C56.0091 26.3859 59.1478 24.4671 62.3971 22.7213L62.6663 23.2222C65.8693 21.5013 69.1805 19.9495 72.5872 18.579L72.375 18.0515C75.7622 16.6888 79.2435 15.5045 82.8065 14.5104L82.9593 15.0582C86.4503 14.0842 90.0203 13.2938 93.6577 12.6985L93.5659 12.1373C97.1564 11.5496 100.812 11.1508 104.522 10.9518L104.553 11.5197C106.367 11.4223 108.194 11.373 110.034 11.373C111.873 11.373 113.7 11.4223 115.514 11.5197L115.545 10.9518C119.255 11.1508 122.911 11.5496 126.501 12.1373L126.409 12.6985C130.047 13.2938 133.617 14.0842 137.108 15.0582L137.261 14.5104C140.824 15.5045 144.305 16.6888 147.692 18.0515L147.48 18.579C150.887 19.9495 154.198 21.5013 157.401 23.2222L157.67 22.7213C160.919 24.4671 164.058 26.3859 167.073 28.4652L166.75 28.9333C169.766 31.0125 172.657 33.253 175.41 35.6419L175.783 35.2124C178.562 37.6235 181.202 40.1851 183.69 42.884L183.272 43.2694C185.749 45.956 188.073 48.7795 190.233 51.7269L190.691 51.3908C192.861 54.3513 194.864 57.4361 196.689 60.6323L196.196 60.9142C198.002 64.0778 199.632 67.351 201.073 70.7211L201.596 70.4975C203.033 73.8596 204.283 77.3176 205.333 80.859L204.788 81.0207C205.819 84.4977 206.656 88.0555 207.287 91.6823L207.847 91.5848Z" stroke="black" stroke-width="1.1373" stroke-dasharray="11.37 11.37"/>
<path d="M219.214 107.827C219.214 166.89 170.349 214.8 110.034 214.8C49.7185 214.8 0.852975 166.89 0.852975 107.827C0.852975 48.763 49.7185 0.852975 110.034 0.852975C170.349 0.852975 219.214 48.763 219.214 107.827Z" stroke="black" stroke-width="1.70595"/>
</svg>
