<svg width="212" height="197" viewBox="0 0 212 197" fill="none" xmlns="http://www.w3.org/2000/svg">
<circle cx="96.5" cy="104.5" r="37.5" stroke="black" stroke-width="50"/>
<path d="M140.805 36.2686L133.733 90.548L173.897 131.661L114.926 124.046L71.1713 160.295L78.2426 106.015L38.0786 64.902L97.0499 72.5169L140.805 36.2686Z" fill="#1E1E1E"/>
<path d="M84.3049 32.1291L121.18 74.9448L180.637 76.976L133.935 111.014L131.527 165.673L94.6519 122.857L35.1948 120.826L81.8976 86.7884L84.3049 32.1291Z" fill="#1547FA"/>
<path d="M114.091 28.6096L130.249 81.3152L184.313 104.749L126.95 119.074L101.877 168.408L85.7191 115.703L31.6555 92.2683L89.0178 77.9442L114.091 28.6096Z" fill="#C1FF3D"/>
<circle cx="96.5" cy="98.5" r="61.5" fill="#D9D9D9" stroke="black" stroke-width="2"/>
<path d="M93.8637 115.364V114.955C93.9091 110.614 94.3637 107.159 95.2273 104.591C96.091 102.023 97.3182 99.9432 98.9091 98.3523C100.5 96.7614 102.409 95.2955 104.636 93.9546C105.977 93.1364 107.182 92.1705 108.25 91.0568C109.318 89.9205 110.159 88.6137 110.773 87.1364C111.409 85.6591 111.727 84.0228 111.727 82.2273C111.727 80 111.205 78.0682 110.159 76.4318C109.114 74.7955 107.716 73.5341 105.966 72.6477C104.216 71.7614 102.273 71.3182 100.136 71.3182C98.2728 71.3182 96.4773 71.7046 94.7501 72.4773C93.0228 73.25 91.5796 74.4659 90.4205 76.125C89.2614 77.7841 88.591 79.9546 88.4091 82.6364H79.8182C80.0001 78.7728 81.0001 75.4659 82.8182 72.7159C84.6591 69.9659 87.0796 67.8637 90.0796 66.4091C93.1023 64.9546 96.4546 64.2273 100.136 64.2273C104.136 64.2273 107.614 65.0227 110.568 66.6137C113.546 68.2046 115.841 70.3864 117.455 73.1591C119.091 75.9318 119.909 79.0909 119.909 82.6364C119.909 85.1364 119.523 87.3978 118.75 89.4205C118 91.4432 116.909 93.25 115.477 94.8409C114.068 96.4318 112.364 97.8409 110.364 99.0682C108.364 100.318 106.761 101.636 105.557 103.023C104.352 104.386 103.477 106.011 102.932 107.898C102.386 109.784 102.091 112.136 102.046 114.955V115.364H93.8637ZM98.2273 135.545C96.5455 135.545 95.1023 134.943 93.8978 133.739C92.6932 132.534 92.091 131.091 92.091 129.409C92.091 127.727 92.6932 126.284 93.8978 125.08C95.1023 123.875 96.5455 123.273 98.2273 123.273C99.9091 123.273 101.352 123.875 102.557 125.08C103.761 126.284 104.364 127.727 104.364 129.409C104.364 130.523 104.08 131.545 103.511 132.477C102.966 133.409 102.227 134.159 101.296 134.727C100.386 135.273 99.3637 135.545 98.2273 135.545Z" fill="#1547FA"/>
<path d="M86.8637 115.364V114.955C86.9091 110.614 87.3637 107.159 88.2273 104.591C89.091 102.023 90.3182 99.9432 91.9091 98.3523C93.5001 96.7614 95.4091 95.2955 97.6364 93.9546C98.9773 93.1364 100.182 92.1705 101.25 91.0568C102.318 89.9205 103.159 88.6137 103.773 87.1364C104.409 85.6591 104.727 84.0228 104.727 82.2273C104.727 80 104.205 78.0682 103.159 76.4318C102.114 74.7955 100.716 73.5341 98.966 72.6477C97.216 71.7614 95.2728 71.3182 93.1364 71.3182C91.2728 71.3182 89.4773 71.7046 87.7501 72.4773C86.0228 73.25 84.5796 74.4659 83.4205 76.125C82.2614 77.7841 81.591 79.9546 81.4091 82.6364H72.8182C73.0001 78.7728 74.0001 75.4659 75.8182 72.7159C77.6591 69.9659 80.0796 67.8637 83.0796 66.4091C86.1023 64.9546 89.4546 64.2273 93.1364 64.2273C97.1364 64.2273 100.614 65.0227 103.568 66.6137C106.546 68.2046 108.841 70.3864 110.455 73.1591C112.091 75.9318 112.909 79.0909 112.909 82.6364C112.909 85.1364 112.523 87.3978 111.75 89.4205C111 91.4432 109.909 93.25 108.477 94.8409C107.068 96.4318 105.364 97.8409 103.364 99.0682C101.364 100.318 99.7614 101.636 98.5569 103.023C97.3523 104.386 96.4773 106.011 95.9319 107.898C95.3864 109.784 95.091 112.136 95.0455 114.955V115.364H86.8637ZM91.2273 135.545C89.5455 135.545 88.1023 134.943 86.8978 133.739C85.6932 132.534 85.091 131.091 85.091 129.409C85.091 127.727 85.6932 126.284 86.8978 125.08C88.1023 123.875 89.5455 123.273 91.2273 123.273C92.9091 123.273 94.3523 123.875 95.5569 125.08C96.7614 126.284 97.3637 127.727 97.3637 129.409C97.3637 130.523 97.0796 131.545 96.5114 132.477C95.966 133.409 95.2273 134.159 94.2955 134.727C93.3864 135.273 92.3637 135.545 91.2273 135.545Z" fill="#C1FF3D"/>
<path d="M90.8637 115.364V114.955C90.9091 110.614 91.3637 107.159 92.2273 104.591C93.091 102.023 94.3182 99.9432 95.9091 98.3523C97.5001 96.7614 99.4091 95.2955 101.636 93.9546C102.977 93.1364 104.182 92.1705 105.25 91.0568C106.318 89.9205 107.159 88.6137 107.773 87.1364C108.409 85.6591 108.727 84.0228 108.727 82.2273C108.727 80 108.205 78.0682 107.159 76.4318C106.114 74.7955 104.716 73.5341 102.966 72.6477C101.216 71.7614 99.2728 71.3182 97.1364 71.3182C95.2728 71.3182 93.4773 71.7046 91.7501 72.4773C90.0228 73.25 88.5796 74.4659 87.4205 76.125C86.2614 77.7841 85.591 79.9546 85.4091 82.6364H76.8182C77.0001 78.7728 78.0001 75.4659 79.8182 72.7159C81.6591 69.9659 84.0796 67.8637 87.0796 66.4091C90.1023 64.9546 93.4546 64.2273 97.1364 64.2273C101.136 64.2273 104.614 65.0227 107.568 66.6137C110.546 68.2046 112.841 70.3864 114.455 73.1591C116.091 75.9318 116.909 79.0909 116.909 82.6364C116.909 85.1364 116.523 87.3978 115.75 89.4205C115 91.4432 113.909 93.25 112.477 94.8409C111.068 96.4318 109.364 97.8409 107.364 99.0682C105.364 100.318 103.761 101.636 102.557 103.023C101.352 104.386 100.477 106.011 99.9319 107.898C99.3864 109.784 99.091 112.136 99.0455 114.955V115.364H90.8637ZM95.2273 135.545C93.5455 135.545 92.1023 134.943 90.8978 133.739C89.6932 132.534 89.091 131.091 89.091 129.409C89.091 127.727 89.6932 126.284 90.8978 125.08C92.1023 123.875 93.5455 123.273 95.2273 123.273C96.9091 123.273 98.3523 123.875 99.5569 125.08C100.761 126.284 101.364 127.727 101.364 129.409C101.364 130.523 101.08 131.545 100.511 132.477C99.966 133.409 99.2273 134.159 98.2955 134.727C97.3864 135.273 96.3637 135.545 95.2273 135.545Z" fill="black"/>
</svg>
