<svg width="95" height="97" viewBox="0 0 95 97" fill="none" xmlns="http://www.w3.org/2000/svg">
<path d="M47.5 5L88.6362 43.25H6.36379L47.5 5Z" fill="#1547FA"/>
<path d="M47.5 7L88.6362 45.25H6.36379L47.5 7Z" fill="#C1FF3D"/>
<path d="M48.0249 17.3261L82 47.1423V96H13.0106L13.525 47.151L48.0249 17.3261Z" fill="#D9D9D9" stroke="#C1FF3D" stroke-width="2"/>
<path d="M47.9949 15.357L80 44.9375V93.5H15.0101L15.4956 44.9459L47.9949 15.357Z" fill="#D9D9D9" stroke="black" stroke-width="2"/>
<path d="M48 25L50.2246 36.1899L61 38.5L50.2246 40.8101L48 52L45.7754 40.8101L35 38.5L45.7754 36.1899L48 25Z" fill="black"/>
<path d="M48.4103 4.36888L2.99999 46.5762" stroke="black" stroke-width="2"/>
<path d="M48 4.36888L93.4103 46.5762" stroke="black" stroke-width="2"/>
<rect x="38" y="61" width="21" height="32" fill="#D9D9D9" stroke="black" stroke-width="2"/>
</svg>
