<svg width="146" height="122" viewBox="0 0 146 122" fill="none" xmlns="http://www.w3.org/2000/svg">
<path d="M58.6237 60.7895L76.022 64.252L76.2112 64.2896L76.3543 64.1604L89.3551 52.4204L86.4611 70.0187L86.4292 70.2124L86.559 70.3596L98.4965 83.9013L81.0982 80.4389L80.9091 80.4012L80.766 80.5305L67.7651 92.2705L70.6592 74.6722L70.691 74.4785L70.5613 74.3313L58.6237 60.7895Z" stroke="black" stroke-width="0.797386"/>
<path d="M65.9959 22.8055L129.08 56.2316L73.2783 95.732L65.9959 22.8055Z" fill="black"/>
<path d="M78.7293 80.2989L95.5934 66.5819L87.3174 46.0937L105.142 58.4589L121.41 43.9914L115.562 65.3506L133.892 76.8974L112.454 77.7328L107.514 99.3367L100.112 78.4939L78.7293 80.2989Z" fill="#C1FF3D"/>
<path d="M78.8607 45.8267L84.3967 36.4746L77.1595 28.4517L87.4723 31.0141L92.6074 21.4202L93.445 32.356L103.856 34.4495L94.0608 38.6458L95.3599 49.5336L88.4687 41.1912L78.8607 45.8267Z" fill="#C1FF3D"/>
<path d="M61.2008 41.7353L62.156 34.5023L55.3357 31.3007L62.6138 30.3185L63.247 23.0348L66.7899 29.6607L74.0015 28.3607L68.913 33.438L72.7369 39.9182L66.0492 36.4303L61.2008 41.7353Z" fill="#C1FF3D"/>
<rect y="46.3944" width="100.782" height="75.6056" rx="16.7451" fill="#1547FA"/>
<rect x="1.19608" y="43.5811" width="98.3903" height="73.2135" rx="15.549" fill="#D9D9D9" stroke="black" stroke-width="2.39216"/>
<rect x="9.50232" y="51.5999" width="59.6278" height="58.8942" rx="9.16994" fill="#FAFAFA" stroke="black" stroke-width="2.39216"/>
<path d="M92.9413 93.3616C92.9413 98.1171 89.2244 101.903 84.7237 101.903C80.2229 101.903 76.506 98.1171 76.506 93.3616C76.506 88.6061 80.2229 84.8206 84.7237 84.8206C89.2244 84.8206 92.9413 88.6061 92.9413 93.3616Z" fill="#D9D9D9" stroke="black" stroke-width="2.39216"/>
<path d="M83.5276 60.4273C83.5276 62.4939 81.918 64.0997 80.0168 64.0997C78.1156 64.0997 76.506 62.4939 76.506 60.4273C76.506 58.3606 78.1156 56.7548 80.0168 56.7548C81.918 56.7548 83.5276 58.3606 83.5276 60.4273Z" stroke="black" stroke-width="2.39216"/>
<path d="M92.9414 69.5916C92.9414 71.6582 91.3318 73.264 89.4306 73.264C87.5294 73.264 85.9198 71.6582 85.9198 69.5916C85.9198 67.5249 87.5294 65.9191 89.4306 65.9191C91.3318 65.9191 92.9414 67.5249 92.9414 69.5916Z" stroke="black" stroke-width="2.39216"/>
<path d="M28.5181 8.59155L48.73 42.385L68.9418 8.59155" stroke="black" stroke-width="2.39216"/>
</svg>
