<svg width="161" height="136" viewBox="0 0 161 136" fill="none" xmlns="http://www.w3.org/2000/svg">
<rect x="84.3009" y="25.7419" width="15.425" height="122.38" transform="rotate(-28.7323 84.3009 25.7419)" fill="#1A88EE"/>
<rect x="114.301" y="29.5481" width="6.70083" height="83.8092" transform="rotate(-28.7323 114.301 29.5481)" fill="#1A88EE"/>
<path d="M85.891 46.6969C91.3781 61.4958 83.735 78.0916 68.8073 83.7591C53.8796 89.4266 37.3347 82.014 31.8477 67.2152C26.3606 52.4163 34.0037 35.8205 48.9314 30.153C63.8591 24.4855 80.4039 31.8981 85.891 46.6969Z" stroke="black" stroke-width="0.84058"/>
<path d="M19.1494 75.6869L45.662 53.2191L45.8634 53.0484L45.8361 52.7859L42.487 20.5559L64.6741 44.1719L64.8548 44.3643L65.1155 44.3236L99.4524 38.9669L72.9398 61.4348L72.7384 61.6054L72.7657 61.8679L76.1148 94.0979L53.9277 70.4819L53.747 70.2896L53.4863 70.3303L19.1494 75.6869Z" fill="black" stroke="black"/>
<rect x="40.3009" y="61.3269" width="109" height="57" rx="2" fill="black"/>
<path d="M94.5387 45.6657V132.736C77.6417 124.503 68.0375 120.151 46.3009 121.654V40.3887C65.8034 39.9821 76.2501 41.5651 94.5387 45.6657Z" fill="#D9D9D9"/>
<path d="M95.0631 46.2552V133.327C111.96 125.094 121.564 120.742 143.301 122.245V40.9781C123.798 40.5715 113.352 42.1545 95.0631 46.2552Z" fill="#D9D9D9"/>
<path d="M94.5387 45.6657V132.736C77.6417 124.503 68.0375 120.151 46.3009 121.654V40.3887C65.8034 39.9821 76.2501 41.5651 94.5387 45.6657Z" stroke="#C1FF3D" stroke-width="2.5"/>
<path d="M95.0631 46.2552V133.327C111.96 125.094 121.564 120.742 143.301 122.245V40.9781C123.798 40.5715 113.352 42.1545 95.0631 46.2552Z" stroke="#C1FF3D" stroke-width="2.5"/>
<path d="M94.8009 45.827V128.327C78.6877 120.526 69.5291 116.402 48.8009 117.827V40.827C67.3987 40.4417 77.3607 41.9416 94.8009 45.827Z" fill="#D9D9D9"/>
<path d="M95.3009 46.3855V128.887C111.414 121.086 120.573 116.962 141.301 118.387V41.3854C122.703 41.0002 112.741 42.5001 95.3009 46.3855Z" fill="#D9D9D9"/>
<path d="M94.8009 45.827V128.327C78.6877 120.526 69.5291 116.402 48.8009 117.827V40.827C67.3987 40.4417 77.3607 41.9416 94.8009 45.827Z" stroke="black" stroke-width="2.5"/>
<path d="M95.3009 46.3855V128.887C111.414 121.086 120.573 116.962 141.301 118.387V41.3854C122.703 41.0002 112.741 42.5001 95.3009 46.3855Z" stroke="black" stroke-width="2.5"/>
<path d="M57.3009 47.3269C70.7949 48.6716 78.2463 49.9343 91.3009 53.3269L95.3009 54.3269L94.8009 114.327C80.9676 109.221 72.7036 107.844 57.3009 107.327V47.3269Z" fill="#FAFAFA"/>
<path d="M133.301 47.3269C119.807 48.6716 112.355 49.9343 99.3009 53.3269L95.3009 54.3269L95.8009 114.327C109.634 109.221 117.898 107.844 133.301 107.327V47.3269Z" fill="#FAFAFA"/>
<path d="M95.3009 54.3269L94.8009 114.327C80.9676 109.221 72.7036 107.844 57.3009 107.327V47.3269C70.7949 48.6716 78.2463 49.9343 91.3009 53.3269L95.3009 54.3269ZM95.3009 54.3269L95.8009 114.327C109.634 109.221 117.898 107.844 133.301 107.327V47.3269C119.807 48.6716 112.355 49.9343 99.3009 53.3269L95.3009 54.3269Z" stroke="black" stroke-width="1.5"/>
<path d="M63.3009 57.3269L91.3009 62.3269M63.3009 69.3269L91.3009 74.3269M63.3009 82.3269L91.3009 87.3269M63.3009 94.3269L91.3009 99.3269" stroke="black"/>
</svg>
